<svg xmlns="http://www.w3.org/2000/svg" viewBox="0 0 226.67 116.93"><defs><style>.cls-1{fill:#dbdbdb;}.cls-2{fill:#ffd530;}.cls-3{fill:#d6d6d6;}.cls-4{fill:#8d8d8e;}.cls-5{fill:#fff;}</style></defs><g id="Layer_2" data-name="Layer 2"><g id="Layer_1-2" data-name="Layer 1"><path d="M73.33,48.38Z"/><polygon class="cls-1" points="49.3 28.55 48.21 29.64 49.46 30.36 49.3 28.55"/><path class="cls-1" d="M41.87,26,42,26v-.7l6.5-6.49-.19-2.07L42,23.06v-1l6.24-6.23L48,13.8,42,19.86v-1l6-6-.18-2.07L42,16.65v-1L47.67,10l-.18-2L42,13.44v-.88l5.47-5.47L47.23,5,42,10.31v-1l5.21-5.21L47,2,42,7l-.08-.88L45.11,2.9c1.1-.3,1.82-.75,1.82-1.25C46.93.74,44.66,0,41.87,0s-5.06.74-5.06,1.65h0L34.28,30.36l5.21-3Z"/><polygon class="cls-1" points="45.62 28.14 48.97 24.79 48.79 22.68 44.16 27.29 44.25 27.34 45.62 28.14"/><polygon class="cls-1" points="49.22 27.66 49.05 25.63 46.21 28.48 47.6 29.28 49.22 27.66"/><polygon class="cls-1" points="48.7 21.77 48.52 19.7 42.12 26.11 43.54 26.93 48.7 21.77"/><polygon class="cls-1" points="73.33 43.58 72.95 43.96 73.39 44.21 73.33 43.58"/><polygon class="cls-1" points="73.27 42.93 73.14 41.38 71.44 43.09 72.5 43.7 73.27 42.93"/><polygon class="cls-1" points="72.89 38.52 72.75 37.01 68.44 41.35 69.47 41.94 72.89 38.52"/><polygon class="cls-1" points="73.08 40.72 72.94 39.18 69.92 42.21 70.98 42.82 73.08 40.72"/><path class="cls-1" d="M72.7,36.38l-.14-1.57-5.1,5.07v-.72l5-5-.14-1.54-4.9,4.91v-.72l4.85-4.85-.14-1.54-4.71,4.71v-.72l4.65-4.65L72,28.18,67.46,32.7V32l4.46-4.46L71.78,26,67.46,30.3v-.71l4.27-4.27-.14-1.52-4.13,4.11v-.66l4.08-4.08L71.4,21.6l-3.94,4v-.71L71.34,21l-.14-1.59-3.74,3.74-.06-.66,2.42-2.41c.82-.23,1.35-.56,1.35-.94,0-.68-1.69-1.23-3.77-1.23s-3.77.55-3.77,1.23h0L62,37.62l6,3.47Z"/><path class="cls-1" d="M21.64,36.38l-.14-1.57-5.1,5.07v-.72l5-5-.13-1.54L16.4,37.49v-.72l4.85-4.85-.14-1.54L16.4,35.09v-.72l4.66-4.65-.14-1.54L16.4,32.7V32l4.46-4.46L20.73,26,16.4,30.3v-.71l4.27-4.27-.13-1.52L16.4,27.91v-.66l4.08-4.08-.14-1.57-3.94,4v-.71L20.29,21l-.14-1.59L16.4,23.12l-.06-.66,2.42-2.41c.82-.23,1.35-.56,1.35-.94,0-.68-1.68-1.23-3.77-1.23s-3.77.55-3.77,1.23h0l-2.2,25.1,8.18-4.74Z"/><polygon class="cls-1" points="21.7 37.01 20.2 38.52 21.75 37.62 21.7 37.01"/><path class="cls-2" d="M108.36,61V63.9a2.58,2.58,0,0,1-2.57,2.6l-7.94,0a2.58,2.58,0,0,1-2.59-2.58V62.73h2.93v.6a.26.26,0,0,0,.26.26l6.72,0a.26.26,0,0,0,.26-.26V62a.26.26,0,0,0-.26-.26H97.3a2,2,0,0,1-2-2V56.7a2.59,2.59,0,0,1,2.59-2.6h7.94a2.59,2.59,0,0,1,2.58,2.6v1.2h-2.93v-.6a.26.26,0,0,0-.26-.26H98.45a.26.26,0,0,0-.26.26v1.37a.25.25,0,0,0,.26.26h7.87A2,2,0,0,1,108.36,61Z"/><path class="cls-2" d="M124.52,57.07v6.48a3,3,0,0,1-3,3H114a3,3,0,0,1-3-3V57.07a3,3,0,0,1,3-3h7.52A3,3,0,0,1,124.52,57.07Zm-2.93.58A.61.61,0,0,0,121,57h-6.36a.61.61,0,0,0-.61.61V63a.61.61,0,0,0,.61.62H121a.62.62,0,0,0,.62-.62Z"/><path class="cls-2" d="M127.21,54.1h11.56v2.78h-8.42V59h7v2.8h-7v4.69h-3.14Z"/><path class="cls-2" d="M153.39,54.1V57h-4.66v9.48h-3.11V57H141V54.1Z"/><path class="cls-2" d="M169.84,54.1h3L169.3,66.52h-3.79L164,60.3l-1.51,6.21h-3.78L155.14,54.1h3l2.47,8.2,2-8.2h2.67l2,8.2Z"/><path class="cls-2" d="M182.61,64.62h-6.16l-.86,1.9h-3.11l5.24-12.42h3.62l5.23,12.42h-3.1Zm-1.23-2.74-1.85-4.72-1.86,4.72Z"/><path class="cls-2" d="M201.5,56.69v3.8a2.6,2.6,0,0,1-2.32,2.57l2.32,3.46h-3.45l-2.31-3.45h-4.06v3.45h-3.1V54.1h10.33A2.59,2.59,0,0,1,201.5,56.69Zm-2.94.6a.25.25,0,0,0-.26-.25h-6.62v3.1h6.62a.26.26,0,0,0,.26-.26Z"/><path class="cls-2" d="M204.2,54.1h11.38v2.76h-8.25v2h6.87v2.95h-6.87v2h8.25v2.76H204.2Z"/><path class="cls-2" d="M95.25,70.81h11.56v2.77H98.39v2.16h7v2.79h-7v4.7H95.25Z"/><path class="cls-2" d="M116.81,81.32h-6.17l-.85,1.91h-3.11l5.23-12.42h3.63l5.23,12.42h-3.1Zm-1.23-2.73-1.85-4.73-1.86,4.73Z"/><path class="cls-2" d="M135.72,73.4v1.72h-2.94V74a.26.26,0,0,0-.26-.26H126a.26.26,0,0,0-.26.26v6a.26.26,0,0,0,.26.26h6.55a.26.26,0,0,0,.26-.26V78.93h2.94v1.71a2.59,2.59,0,0,1-2.59,2.59h-7.77a2.58,2.58,0,0,1-2.58-2.59V73.4a2.58,2.58,0,0,1,2.58-2.59h7.77A2.59,2.59,0,0,1,135.72,73.4Z"/><path class="cls-2" d="M150.35,70.81v2.93h-4.66v9.49h-3.1V73.74h-4.66V70.81Z"/><path class="cls-2" d="M166,73.78v6.48a3,3,0,0,1-3,3h-7.52a3,3,0,0,1-3-3V73.78a3,3,0,0,1,3-3H163A3,3,0,0,1,166,73.78Zm-2.94.58a.61.61,0,0,0-.61-.62h-6.36a.62.62,0,0,0-.62.62v5.32a.62.62,0,0,0,.62.62h6.36a.61.61,0,0,0,.61-.62Z"/><path class="cls-2" d="M181.59,73.4v3.79a2.6,2.6,0,0,1-2.32,2.58l2.32,3.46h-3.45l-2.31-3.45h-4.06v3.45h-3.1V70.81H179A2.59,2.59,0,0,1,181.59,73.4Zm-2.94.6a.26.26,0,0,0-.26-.26h-6.62v3.11h6.62a.26.26,0,0,0,.26-.26Z"/><path class="cls-2" d="M192.48,70.81h3.4l-4.69,7.74v4.68h-3.11V78.55l-4.68-7.74h3.39l2.85,4.82Z"/><path class="cls-3" d="M99.71,91.1V92a.84.84,0,0,1-.25.59.84.84,0,0,1,.25.59V94a1,1,0,0,1-1,1H94.44v-5h4.22A1,1,0,0,1,99.71,91.1Zm-1.19.18a.11.11,0,0,0-.1-.11H95.7V92h2.72a.11.11,0,0,0,.1-.11Zm0,1.91a.11.11,0,0,0-.1-.11H95.7v.86h2.72a.1.1,0,0,0,.1-.1Z"/><path class="cls-3" d="M104.09,90.06h1.36l-1.88,3.11v1.88h-1.25V93.17l-1.88-3.11h1.37L103,92Z"/><path class="cls-3" d="M114.45,92.83V94a1,1,0,0,1-1,1h-3.18a1,1,0,0,1-1-1v-.48h1.18v.24a.11.11,0,0,0,.11.1h2.7a.09.09,0,0,0,.1-.1v-.54a.11.11,0,0,0-.1-.11H110a.83.83,0,0,1-.83-.82V91.11a1,1,0,0,1,1-1h3.19a1,1,0,0,1,1,1v.48h-1.18v-.24a.1.1,0,0,0-.1-.1h-2.7a.1.1,0,0,0-.11.1v.55a.1.1,0,0,0,.11.1h3.16A.83.83,0,0,1,114.45,92.83Z"/><path class="cls-3" d="M120.94,91.26v2.6a1.19,1.19,0,0,1-1.2,1.19h-3a1.19,1.19,0,0,1-1.19-1.19v-2.6a1.2,1.2,0,0,1,1.19-1.2h3A1.2,1.2,0,0,1,120.94,91.26Zm-1.18.23a.25.25,0,0,0-.25-.25H117a.25.25,0,0,0-.25.25v2.14a.25.25,0,0,0,.25.24h2.55a.25.25,0,0,0,.25-.24Z"/><path class="cls-3" d="M123.26,93.87h3v1.18H122v-5h1.24Z"/><path class="cls-3" d="M132.35,91.22V93.9a1.14,1.14,0,0,1-1.15,1.15h-4.11v-5h4.11A1.15,1.15,0,0,1,132.35,91.22Zm-1.18.27a.25.25,0,0,0-.24-.25h-2.66v2.63h2.66a.24.24,0,0,0,.24-.24Z"/><path class="cls-3" d="M133.44,95.05v-5h1.25v5Z"/><path class="cls-3" d="M135.77,90.06h4.57v1.11H137V92h2.76v1.18H137v.79h3.31v1.11h-4.57Z"/><path class="cls-3" d="M146.61,91.1v1.53a1,1,0,0,1-.93,1l.93,1.39h-1.39l-.92-1.38h-1.63v1.38h-1.25v-5h4.15A1,1,0,0,1,146.61,91.1Zm-1.18.25a.1.1,0,0,0-.1-.11h-2.66v1.25h2.66a.1.1,0,0,0,.1-.1Z"/><path class="cls-3" d="M153,92.83V94a1,1,0,0,1-1,1h-3.18a1,1,0,0,1-1.05-1v-.48h1.18v.24a.11.11,0,0,0,.1.1h2.71a.1.1,0,0,0,.1-.1v-.54a.11.11,0,0,0-.11-.11h-3.16a.82.82,0,0,1-.82-.82V91.11a1,1,0,0,1,1-1h3.19a1,1,0,0,1,1,1v.48h-1.18v-.24a.1.1,0,0,0-.1-.1H149a.1.1,0,0,0-.1.1v.55a.1.1,0,0,0,.1.1h3.17A.83.83,0,0,1,153,92.83Z"/><path class="cls-3" d="M153.83,94.35a.71.71,0,1,1,.7.7A.7.7,0,0,1,153.83,94.35Z"/><path class="cls-3" d="M159.13,90.06h4.64v1.12h-3.38V92h2.82v1.13h-2.82v1.88h-1.26Z"/><path class="cls-3" d="M170.26,91.26v2.6a1.19,1.19,0,0,1-1.2,1.19h-3a1.19,1.19,0,0,1-1.2-1.19v-2.6a1.2,1.2,0,0,1,1.2-1.2h3A1.2,1.2,0,0,1,170.26,91.26Zm-1.18.23a.25.25,0,0,0-.25-.25h-2.55a.25.25,0,0,0-.25.25v2.14a.25.25,0,0,0,.25.24h2.55a.25.25,0,0,0,.25-.24Z"/><path class="cls-3" d="M176.52,91.1v1.53a1,1,0,0,1-.92,1l.92,1.39h-1.38l-.93-1.38h-1.63v1.38h-1.24v-5h4.14A1,1,0,0,1,176.52,91.1Zm-1.17.25a.11.11,0,0,0-.11-.11h-2.66v1.25h2.66a.11.11,0,0,0,.11-.1Z"/><path class="cls-3" d="M185.88,92.83V94a1,1,0,0,1-1,1h-3.18a1,1,0,0,1-1-1v-.48h1.18v.24a.11.11,0,0,0,.1.1h2.71a.1.1,0,0,0,.1-.1v-.54a.11.11,0,0,0-.11-.11h-3.16a.82.82,0,0,1-.82-.82V91.11a1,1,0,0,1,1-1h3.19a1,1,0,0,1,1,1v.48H184.7v-.24a.1.1,0,0,0-.1-.1h-2.71a.1.1,0,0,0-.1.1v.55a.1.1,0,0,0,.1.1h3.17A.83.83,0,0,1,185.88,92.83Z"/><path class="cls-3" d="M192.36,91.26v2.6a1.19,1.19,0,0,1-1.19,1.19h-3A1.19,1.19,0,0,1,187,93.86v-2.6a1.19,1.19,0,0,1,1.19-1.2h3A1.19,1.19,0,0,1,192.36,91.26Zm-1.17.23a.25.25,0,0,0-.25-.25h-2.55a.25.25,0,0,0-.25.25v2.14a.25.25,0,0,0,.25.24h2.55a.25.25,0,0,0,.25-.24Z"/><path class="cls-3" d="M194.69,93.87h3v1.18h-4.21v-5h1.25Z"/><path class="cls-3" d="M203.78,91.22V93.9a1.15,1.15,0,0,1-1.16,1.15h-4.1v-5h4.1A1.16,1.16,0,0,1,203.78,91.22Zm-1.18.27a.25.25,0,0,0-.25-.25H199.7v2.63h2.65a.25.25,0,0,0,.25-.24Z"/><path class="cls-3" d="M204.87,95.05v-5h1.25v5Z"/><path class="cls-3" d="M207.2,90.06h4.57v1.11h-3.31V92h2.76v1.18h-2.76v.79h3.31v1.11H207.2Z"/><path class="cls-3" d="M218,91.1v1.53a1,1,0,0,1-.93,1l.93,1.39h-1.39l-.92-1.38H214.1v1.38h-1.25v-5H217A1,1,0,0,1,218,91.1Zm-1.18.25a.11.11,0,0,0-.1-.11H214.1v1.25h2.66a.11.11,0,0,0,.1-.1Z"/><path class="cls-3" d="M224.38,92.83V94a1,1,0,0,1-1,1h-3.19a1,1,0,0,1-1-1v-.48h1.18v.24a.1.1,0,0,0,.1.1h2.7a.1.1,0,0,0,.11-.1v-.54a.1.1,0,0,0-.1-.11h-3.16a.82.82,0,0,1-.82-.82V91.11a1,1,0,0,1,1-1h3.18a1,1,0,0,1,1,1v.48h-1.17v-.24a.1.1,0,0,0-.11-.1h-2.7a.09.09,0,0,0-.1.1v.55a.09.09,0,0,0,.1.1h3.16A.82.82,0,0,1,224.38,92.83Z"/><path class="cls-3" d="M225.26,94.35a.7.7,0,0,1,.7-.7.7.7,0,1,1,0,1.4A.7.7,0,0,1,225.26,94.35Z"/><path class="cls-4" d="M0,55.7v37l41.87,24.24V31.45Z"/><path class="cls-5" d="M83.56,55.59,41.87,31.45v85.48L83.73,92.69Z"/><polygon points="51.1 88.77 51.1 83.95 67.95 74.19 51.1 64.44 51.1 59.61 76.29 74.19 51.1 88.77"/><polygon points="32.58 64.44 15.73 74.19 32.58 83.95 32.58 88.77 7.39 74.19 32.58 59.61 32.58 64.44"/></g></g></svg>